<?xml version="1.0" encoding="UTF-8"?>
<!DOCTYPE svg PUBLIC "-//W3C//DTD SVG 1.1//EN" "http://www.w3.org/Graphics/SVG/1.1/DTD/svg11.dtd">
<svg xmlns="http://www.w3.org/2000/svg" version="1.1" width="64px" height="64px" style="shape-rendering:geometricPrecision; text-rendering:geometricPrecision; image-rendering:optimizeQuality; fill-rule:evenodd; clip-rule:evenodd" xmlns:xlink="http://www.w3.org/1999/xlink">
<g><path style="opacity:0.872" fill="#ffe6c9" d="M 30.5,-0.5 C 31.1667,-0.5 31.8333,-0.5 32.5,-0.5C 31.8333,11.5 31.1667,11.5 30.5,-0.5 Z"/></g>
<g><path style="opacity:0.694" fill="#ffe6c8" d="M 8.5,8.5 C 11.2626,8.74381 13.4293,10.0771 15,12.5C 15.7494,13.635 15.5827,14.635 14.5,15.5C 11.7341,13.7407 9.73408,11.4073 8.5,8.5 Z"/></g>
<g><path style="opacity:0.663" fill="#ffe6c9" d="M 51.5,8.5 C 52.675,8.28099 53.675,8.61432 54.5,9.5C 52.8333,11.8333 50.8333,13.8333 48.5,15.5C 47.4173,14.635 47.2506,13.635 48,12.5C 49.3756,11.2949 50.5423,9.9616 51.5,8.5 Z"/></g>
<g><path style="opacity:0.988" fill="#f9d008" d="M 31.5,10.5 C 46.0324,12.5563 51.8657,20.8897 49,35.5C 46.4765,39.8882 43.9765,44.2215 41.5,48.5C 35.8333,48.5 30.1667,48.5 24.5,48.5C 24.6495,47.448 24.4828,46.448 24,45.5C 10.6901,30.235 13.1901,18.5683 31.5,10.5 Z"/></g>
<g><path style="opacity:1" fill="#faae12" d="M 31.5,10.5 C 13.1901,18.5683 10.6901,30.235 24,45.5C 24.4828,46.448 24.6495,47.448 24.5,48.5C 23.5,48.5 22.5,48.5 21.5,48.5C 21.6495,47.448 21.4828,46.448 21,45.5C 13.0418,37.7383 11.3751,28.7383 16,18.5C 19.9467,13.3687 25.1133,10.7021 31.5,10.5 Z"/></g>
<g><path style="opacity:1" fill="#faa714" d="M 36.5,24.5 C 37.8333,24.5 39.1667,24.5 40.5,24.5C 38.6491,30.1931 35.3157,34.8598 30.5,38.5C 25.9275,36.6036 23.2608,33.2702 22.5,28.5C 25.6136,29.0913 28.1136,30.758 30,33.5C 32.6756,30.7945 34.8423,27.7945 36.5,24.5 Z"/></g>
<g><path style="opacity:0.598" fill="#ffe6c9" d="M -0.5,29.5 C 2.5,29.5 5.5,29.5 8.5,29.5C 8.5,30.5 8.5,31.5 8.5,32.5C 5.5,32.5 2.5,32.5 -0.5,32.5C -0.5,31.5 -0.5,30.5 -0.5,29.5 Z"/></g>
<g><path style="opacity:0.599" fill="#ffe7c8" d="M 63.5,29.5 C 63.5,30.5 63.5,31.5 63.5,32.5C 60.5,32.5 57.5,32.5 54.5,32.5C 54.5,31.5 54.5,30.5 54.5,29.5C 57.5,29.5 60.5,29.5 63.5,29.5 Z"/></g>
<g><path style="opacity:0.67" fill="#ffe7c9" d="M 13.5,46.5 C 15.2252,46.8425 15.7252,47.8425 15,49.5C 13.3163,51.3513 11.4829,53.018 9.5,54.5C 8.41728,53.635 8.25061,52.635 9,51.5C 10.7073,49.9625 12.2073,48.2959 13.5,46.5 Z"/></g>
<g><path style="opacity:0.704" fill="#ffe7c9" d="M 47.5,46.5 C 50.0562,47.5434 52.2228,49.2101 54,51.5C 54.7494,52.635 54.5827,53.635 53.5,54.5C 50.2876,52.6367 48.2876,49.97 47.5,46.5 Z"/></g>
<g><path style="opacity:0.959" fill="#4d728b" d="M 24.5,48.5 C 30.1667,48.5 35.8333,48.5 41.5,48.5C 41.6641,51.1873 41.4974,53.854 41,56.5C 40.2917,57.3805 39.4584,58.0472 38.5,58.5C 34.4862,58.6655 30.4862,58.4988 26.5,58C 25.8333,57 25.1667,56 24.5,55C 36.482,53.8405 36.482,53.0071 24.5,52.5C 24.5,51.1667 24.5,49.8333 24.5,48.5 Z"/></g>
<g><path style="opacity:1" fill="#365f82" d="M 21.5,48.5 C 22.5,48.5 23.5,48.5 24.5,48.5C 24.5,49.8333 24.5,51.1667 24.5,52.5C 36.482,53.0071 36.482,53.8405 24.5,55C 25.1667,56 25.8333,57 26.5,58C 30.4862,58.4988 34.4862,58.6655 38.5,58.5C 38.634,60.2915 38.3007,61.9582 37.5,63.5C 33.5,63.5 29.5,63.5 25.5,63.5C 23.215,58.8348 21.8817,53.8348 21.5,48.5 Z"/></g>
</svg>
