<?xml version="1.0" encoding="UTF-8"?>
<!DOCTYPE svg PUBLIC "-//W3C//DTD SVG 1.1//EN" "http://www.w3.org/Graphics/SVG/1.1/DTD/svg11.dtd">
<svg xmlns="http://www.w3.org/2000/svg" version="1.1" width="64px" height="64px" style="shape-rendering:geometricPrecision; text-rendering:geometricPrecision; image-rendering:optimizeQuality; fill-rule:evenodd; clip-rule:evenodd" xmlns:xlink="http://www.w3.org/1999/xlink">
<g><path style="opacity:0.993" fill="#ec5e72" d="M 5.5,-0.5 C 22.8333,-0.5 40.1667,-0.5 57.5,-0.5C 58.9418,0.819534 59.6085,2.4862 59.5,4.5C 40.8333,4.5 22.1667,4.5 3.5,4.5C 3.39151,2.4862 4.05817,0.819534 5.5,-0.5 Z"/></g>
<g><path style="opacity:0.964" fill="#e45974" d="M 3.5,4.5 C 22.1667,4.5 40.8333,4.5 59.5,4.5C 59.5,5.5 59.5,6.5 59.5,7.5C 47.9877,7.1719 36.6544,7.50523 25.5,8.5C 22.2227,10.0783 19.2227,9.74499 16.5,7.5C 12.1667,7.5 7.83333,7.5 3.5,7.5C 3.5,6.5 3.5,5.5 3.5,4.5 Z"/></g>
<g><path style="opacity:0.984" fill="#d95478" d="M 59.5,7.5 C 59.5,9.5 59.5,11.5 59.5,13.5C 47.7527,13.1887 36.0861,13.522 24.5,14.5C 23.8333,14.5 23.5,14.8333 23.5,15.5C 21.8333,16.8333 20.1667,16.8333 18.5,15.5C 18.5,14.8333 18.1667,14.5 17.5,14.5C 17.5,13.1667 17.5,11.8333 17.5,10.5C 20.3938,10.0423 22.8938,10.709 25,12.5C 25.49,11.2068 25.6567,9.87344 25.5,8.5C 36.6544,7.50523 47.9877,7.1719 59.5,7.5 Z"/></g>
<g><path style="opacity:0.942" fill="#d35079" d="M 3.5,7.5 C 7.83333,7.5 12.1667,7.5 16.5,7.5C 16.1984,10.0593 16.5318,12.3926 17.5,14.5C 18.1667,14.5 18.5,14.8333 18.5,15.5C 18.5,16.1667 18.5,16.8333 18.5,17.5C 18.6716,18.4916 18.3382,19.1583 17.5,19.5C 16.8333,18.1667 16.1667,18.1667 15.5,19.5C 15.1667,19.5 14.8333,19.5 14.5,19.5C 14.1667,19.5 13.8333,19.5 13.5,19.5C 10.1667,19.5 6.83333,19.5 3.5,19.5C 3.5,15.5 3.5,11.5 3.5,7.5 Z"/></g>
<g><path style="opacity:0.931" fill="#cf4d7b" d="M 59.5,13.5 C 59.5,15.5 59.5,17.5 59.5,19.5C 50.3178,19.8266 41.3178,19.4933 32.5,18.5C 31.2921,19.2341 29.9587,19.5674 28.5,19.5C 28.1667,19.5 27.8333,19.5 27.5,19.5C 27.1667,19.5 26.8333,19.5 26.5,19.5C 25.8333,18.1667 25.1667,18.1667 24.5,19.5C 23.6618,19.1583 23.3284,18.4916 23.5,17.5C 23.5,16.8333 23.5,16.1667 23.5,15.5C 24.1667,15.5 24.5,15.1667 24.5,14.5C 36.0861,13.522 47.7527,13.1887 59.5,13.5 Z"/></g>
<g><path style="opacity:0.897" fill="#c14681" d="M 18.5,17.5 C 20.1667,17.5 21.8333,17.5 23.5,17.5C 23.3284,18.4916 23.6618,19.1583 24.5,19.5C 25.1667,19.5 25.8333,19.5 26.5,19.5C 26.8333,19.5 27.1667,19.5 27.5,19.5C 27.8333,20.8333 28.1667,20.8333 28.5,19.5C 29.9587,19.5674 31.2921,19.2341 32.5,18.5C 41.3178,19.4933 50.3178,19.8266 59.5,19.5C 59.5,21.8333 59.5,24.1667 59.5,26.5C 56.9455,25.612 54.2788,25.2786 51.5,25.5C 44.9779,25.1765 38.6446,25.5098 32.5,26.5C 31.8333,26.1667 31.1667,25.8333 30.5,25.5C 30.1667,21.5 29.8333,21.5 29.5,25.5C 23.8333,25.5 18.1667,25.5 12.5,25.5C 12.1667,21.5 11.8333,21.5 11.5,25.5C 8.72116,25.2786 6.05449,25.612 3.5,26.5C 3.5,24.1667 3.5,21.8333 3.5,19.5C 6.83333,19.5 10.1667,19.5 13.5,19.5C 13.8333,20.8333 14.1667,20.8333 14.5,19.5C 14.8333,19.5 15.1667,19.5 15.5,19.5C 16.1667,19.5 16.8333,19.5 17.5,19.5C 18.3382,19.1583 18.6716,18.4916 18.5,17.5 Z"/></g>
<g><path style="opacity:0.982" fill="#b13e87" d="M 11.5,25.5 C 11.8333,25.5 12.1667,25.5 12.5,25.5C 18.1667,26.8333 23.8333,26.8333 29.5,25.5C 29.8333,25.5 30.1667,25.5 30.5,25.5C 31.1667,25.8333 31.8333,26.1667 32.5,26.5C 39.0221,26.8235 45.3554,26.4902 51.5,25.5C 54.2788,25.2786 56.9455,25.612 59.5,26.5C 59.5,28.8333 59.5,31.1667 59.5,33.5C 56.3915,33.2641 53.3915,33.5975 50.5,34.5C 38.011,33.5046 25.3443,33.1713 12.5,33.5C 9.60853,34.4025 6.60853,34.7359 3.5,34.5C 3.5,31.8333 3.5,29.1667 3.5,26.5C 6.05449,25.612 8.72116,25.2786 11.5,25.5 Z"/></g>
<g><path style="opacity:0.982" fill="#974b95" d="M 12.5,33.5 C 24.989,34.4954 37.6557,34.8287 50.5,34.5C 53.3915,33.5975 56.3915,33.2641 59.5,33.5C 59.5,35.1667 59.5,36.8333 59.5,38.5C 40.8333,38.5 22.1667,38.5 3.5,38.5C 3.5,37.1667 3.5,35.8333 3.5,34.5C 6.60853,34.7359 9.60853,34.4025 12.5,33.5 Z"/></g>
<g><path style="opacity:0.888" fill="#8d559f" d="M 3.5,38.5 C 22.1667,38.5 40.8333,38.5 59.5,38.5C 59.5,39.1667 59.5,39.8333 59.5,40.5C 56.3915,40.2641 53.3915,40.5975 50.5,41.5C 37.8333,40.1667 25.1667,40.1667 12.5,41.5C 9.60853,40.5975 6.60853,40.2641 3.5,40.5C 3.5,39.8333 3.5,39.1667 3.5,38.5 Z"/></g>
<g><path style="opacity:0.982" fill="#7664a8" d="M 3.5,40.5 C 6.60853,40.2641 9.60853,40.5975 12.5,41.5C 25.1667,41.5 37.8333,41.5 50.5,41.5C 53.3915,40.5975 56.3915,40.2641 59.5,40.5C 59.5,42.1667 59.5,43.8333 59.5,45.5C 40.8333,45.5 22.1667,45.5 3.5,45.5C 3.5,43.8333 3.5,42.1667 3.5,40.5 Z"/></g>
<g><path style="opacity:0.982" fill="#676eb0" d="M 3.5,45.5 C 22.1667,45.5 40.8333,45.5 59.5,45.5C 59.5,46.5 59.5,47.5 59.5,48.5C 56.8333,48.5 54.1667,48.5 51.5,48.5C 38.1667,48.5 24.8333,48.5 11.5,48.5C 8.83333,48.5 6.16667,48.5 3.5,48.5C 3.5,47.5 3.5,46.5 3.5,45.5 Z"/></g>
<g><path style="opacity:0.982" fill="#517fbd" d="M 3.5,48.5 C 6.16667,48.5 8.83333,48.5 11.5,48.5C 24.8333,49.8333 38.1667,49.8333 51.5,48.5C 54.1667,48.5 56.8333,48.5 59.5,48.5C 59.5,50.1667 59.5,51.8333 59.5,53.5C 40.8333,53.5 22.1667,53.5 3.5,53.5C 3.5,51.8333 3.5,50.1667 3.5,48.5 Z"/></g>
<g><path style="opacity:0.793" fill="#3b8fc9" d="M 3.5,53.5 C 22.1667,53.5 40.8333,53.5 59.5,53.5C 59.5,55.1667 59.5,56.8333 59.5,58.5C 40.8333,58.5 22.1667,58.5 3.5,58.5C 3.5,56.8333 3.5,55.1667 3.5,53.5 Z"/></g>
<g><path style="opacity:0.975" fill="#25a0d6" d="M 3.5,58.5 C 22.1667,58.5 40.8333,58.5 59.5,58.5C 59.6085,60.5138 58.9418,62.1805 57.5,63.5C 40.1667,63.5 22.8333,63.5 5.5,63.5C 4.05817,62.1805 3.39151,60.5138 3.5,58.5 Z"/></g>
</svg>
